# xmcd
#
# Track frame offsets: 
#        150
#        4943
#        14725
#        24174
#        31052
#        34124
#        38620
#        44490
#        53637
#        60301
#        75714
#        91599
#        95899
#        101776
#        103599
#        108784
#        116212
#        119413
#        122517
#        138690
#        153351
#        161090
#        171887
#        178466
#        185379
#        189101
#        190770
#        193263
#        197768
#        205566
#        219023
#        221748
#
# Disc length: 2997 seconds
#
# Revision: 0
# Processed by: cddbd v1.5.2PL0 Copyright (c) Steve Scherf et al.
# Submitted via: ExactAudioCopy v0.95b3
#
DISCID=b50bb320
DTITLE=Led Zeppelin  - Studio Sessions Ultimate [Disc 7] 
DYEAR=1900
DGENRE=
TTITLE0=Lucifer Rising
TTITLE1=Lucifer Rising
TTITLE2=Lucifer Rising
TTITLE3=Untitled Instrumental
TTITLE4=Untitled Instrumental
TTITLE5=Untitled Instrumental
TTITLE6=Untitled Instrumental
TTITLE7=Untitled Instrumental
TTITLE8=Untitled Instrumental
TTITLE9=Untitled Instrumental
TTITLE10=Untitled Instrumental
TTITLE11=Untitled Instrumental
TTITLE12=Untitled Instrumental
TTITLE13=Untitled Instrumental
TTITLE14=Untitled Instrumental
TTITLE15=Untitled Instrumental
TTITLE16=Untitled Instrumental
TTITLE17=Untitled Instrumental
TTITLE18=Untitled Instrumental
TTITLE19=Untitled Instrumental
TTITLE20=Untitled Instrumental
TTITLE21=Untitled Instrumental
TTITLE22=Untitled Instrumental
TTITLE23=Untitled Instrumental
TTITLE24=Untitled Instrumental
TTITLE25=Untitled Instrumental
TTITLE26=Untitled Instrumental
TTITLE27=Untitled Instrumental
TTITLE28=Untitled Instrumental
TTITLE29=Untitled Instrumental
TTITLE30=Untitled Instrumental
TTITLE31=Untitled Instrumental
EXTD=
EXTT0=
EXTT1=
EXTT2=
EXTT3=
EXTT4=
EXTT5=
EXTT6=
EXTT7=
EXTT8=
EXTT9=
EXTT10=
EXTT11=
EXTT12=
EXTT13=
EXTT14=
EXTT15=
EXTT16=
EXTT17=
EXTT18=
EXTT19=
EXTT20=
EXTT21=
EXTT22=
EXTT23=
EXTT24=
EXTT25=
EXTT26=
EXTT27=
EXTT28=
EXTT29=
EXTT30=
EXTT31=
PLAYORDER=
